{"title":"Paranormal Activity 3 TS XviD - NOGRP","uid":6948697,"size":729251840,"categoryP":"video","categoryS":"movies","magnet":"?xt=urn:btih:049371f9b438169ba2d394d9c6731373b43b9c3b&amp;dn=Paranormal+Activity+3+TS+XviD+-+NOGRP&amp;tr=udp%3A%2F%2Ftracker.openbittorrent.com%3A80&amp;tr=udp%3A%2F%2Fopen.demonii.com%3A1337&amp;tr=udp%3A%2F%2Ftracker.coppersurfer.tk%3A6969&amp;tr=udp%3A%2F%2Fexodus.desync.com%3A6969","seeders":0,"leechers":1,"uploader":".BONE.","files":1,"time":1326322473,"description":"Paranormal Activity 3 TS XviD - NOGRP\n\nVideo\nID : 0\nFormat : MPEG-4 Visual\nFormat profile : Advanced Simple@L5\nFormat settings, BVOP : 2\nFormat settings, QPel : No\nFormat settings, GMC : No warppoints\nFormat settings, Matrix : Default (H.263)\nMuxing mode : Packed bitstream\nCodec ID : XVID\nCodec ID/Hint : XviD\nDuration : 1h 18mn\nBit rate : 1 097 Kbps\nWidth : 656 pixels\nHeight : 288 pixels\nDisplay aspect ratio : 2.25:1\nFrame rate : 25.000 fps\nColor space : YUV\nChroma subsampling : 4:2:0\nBit depth : 8 bits\nScan type : Progressive\nCompression mode : Lossy\nBits/(Pixel*Frame) : 0.232\nStream size : 618 MiB (89%)\nWriting library : XviD 64\n\nAudio\nID : 1\nFormat : MPEG Audio\nFormat version : Version 1\nFormat profile : Layer 3\nMode : Joint stereo\nMode extension : MS Stereo\nCodec ID : 55\nCodec ID/Hint : MP3\nDuration : 1h 18mn\nBit rate mode : Constant\nBit rate : 128 Kbps\nChannel(s) : 2 channels\nSampling rate : 44.1 KHz\nCompression mode : Lossy\nStream size : 72.1 MiB (10%)\nAlignment : Split accross interleaves\nInterleave, duration : 40 ms (1.00 video frame)\nInterleave, preload duration : 500 ms\nWriting library : LAME3.98r\nEncoding settings : -m j -V 4 -q 2 -lowpass 17 -b 128\n\ntagged as R5\nnot sure what it is but dont think its an R5\ncorner at top left from bad crop\nfirst few minutes missing\nbut better then whats out atm\n","torrent":{"xt":"urn:btih:049371f9b438169ba2d394d9c6731373b43b9c3b","amp;dn":"Paranormal+Activity+3+TS+XviD+-+NOGRP","amp;tr":["udp%3A%2F%2Ftracker.openbittorrent.com%3A80","udp%3A%2F%2Fopen.demonii.com%3A1337","udp%3A%2F%2Ftracker.coppersurfer.tk%3A6969","udp%3A%2F%2Fexodus.desync.com%3A6969"],"infoHash":"049371f9b438169ba2d394d9c6731373b43b9c3b","infoHashBuffer":{"type":"Buffer","data":[4,147,113,249,180,56,22,155,162,211,148,217,198,115,19,115,180,59,156,59]},"announce":[],"urlList":[]}}